<svg id="Layer_1" data-name="Layer 1" xmlns="http://www.w3.org/2000/svg" viewBox="0 0 382.45 149.84"><defs><style>.cls-1{fill:#83c76f;}.cls-2{font-size:66.96px;font-family:Calibri-Bold, Calibri;font-weight:700;}.cls-2,.cls-9{fill:#fff;}.cls-3{letter-spacing:-0.01em;}.cls-4{letter-spacing:0em;}.cls-5{letter-spacing:-0.01em;}.cls-6{letter-spacing:-0.01em;}.cls-7{fill:none;}.cls-8{fill:#ebbe17;}.cls-9{font-size:24.7px;font-family:SegoeUISymbol, Segoe UI Symbol;}.cls-10{letter-spacing:-0.01em;}.cls-11{letter-spacing:0em;}.cls-12{letter-spacing:-0.01em;}</style></defs><path class="cls-1" d="M135.33,61.79a4,4,0,0,0-3.2-1.56h-5.68V39.09a4.06,4.06,0,0,0-4-4.07H109.15V27.44a4.07,4.07,0,0,0-4.06-4.07H91.84v-6.5a4.07,4.07,0,0,0-4.06-4.07H70.47a4.07,4.07,0,0,0-4.06,4.07v6.5H53.16a4.06,4.06,0,0,0-4,4.07V35H35.85a4.06,4.06,0,0,0-4.05,4.07V60.23H26.12a4.06,4.06,0,0,0-3.94,5c2.65,10.75,13.41,59.8,16.15,70.86A20.14,20.14,0,0,0,58,151.57h42.2a20.14,20.14,0,0,0,19.69-15.45c2.71-11,13.48-60,16.16-70.85a4.06,4.06,0,0,0-.74-3.48Zm-17-18.63V60.23H116a4,4,0,0,0-3.68,2.36,19.48,19.48,0,0,1-3.13,4.76V43.16ZM101,31.5V73.69a41.71,41.71,0,0,1-9.19,3.62V31.5ZM83.72,20.93V78.75q-2.27.21-4.59.21c-1.56,0-3.09-.07-4.6-.21V20.93ZM66.41,31.5V77.31a41.71,41.71,0,0,1-9.19-3.62V31.5ZM39.91,43.16h9.2V67.35A19.48,19.48,0,0,1,46,62.59a4,4,0,0,0-3.68-2.36H39.91Zm72.13,91a12,12,0,0,1-11.82,9.27H58a12,12,0,0,1-11.82-9.27c-2.7-10.95-12.65-56.25-14.93-65.81h8.58c6.65,11.3,22,18.73,39.28,18.73s32.62-7.43,39.27-18.73H127c-2.3,9.65-12.25,55-14.93,65.81Z" transform="translate(-22.06 -12.8)"/><path class="cls-1" d="M79.13,101.7a14.77,14.77,0,1,0,14.73,14.77A14.77,14.77,0,0,0,79.13,101.7Zm0,21.41a6.64,6.64,0,1,1,6.62-6.64A6.64,6.64,0,0,1,79.13,123.11Z" transform="translate(-22.06 -12.8)"/><text class="cls-2" transform="translate(114.13 99.64)">S<tspan class="cls-3" x="31.65" y="0">t</tspan><tspan class="cls-4" x="54.21" y="0">o</tspan><tspan class="cls-5" x="90.2" y="0">r</tspan><tspan class="cls-6" x="113.25" y="0">e</tspan><tspan x="146.47" y="0">fries</tspan></text><polyline class="cls-7" points="69.77 64.62 69.77 64.48 69.77 64.39"/><polyline class="cls-7" points="61.66 65.86 61.66 65.91 61.66 65.93 61.66 65.94"/><path class="cls-8" d="M83.57,78.6" transform="translate(-22.06 -12.8)"/><path class="cls-8" d="M81.55,78.52" transform="translate(-22.06 -12.8)"/><polyline class="cls-7" points="44.35 64.44 44.35 64.48 44.35 64.49 44.35 64.52"/><path class="cls-8" d="M66.31,77.11" transform="translate(-22.06 -12.8)"/><polyline class="cls-7" points="35.16 60.8 35.16 60.86 35.16 60.9"/><text class="cls-9" transform="translate(117.62 130.35) scale(0.97 1)">Social p<tspan class="cls-10" x="84.83" y="0">r</tspan><tspan class="cls-11" x="93.09" y="0">omo</tspan><tspan class="cls-12" x="143.32" y="0">t</tspan><tspan x="151.49" y="0">e</tspan></text></svg>